name rise36.2859peak64.2979fall75.1499.mot
datacolumns 19
datarows 23
range 14.66661400000000 14.70327600000000
endheader
time	ground_force1_vx	ground_force1_vy	ground_force1_vz	ground_force1_px	ground_force1_py	ground_force1_pz	ground_force2_vx	ground_force2_vy	ground_force2_vz	ground_force2_px	ground_force2_py	ground_force2_pz	ground_torque1_x	ground_torque1_y	ground_torque1_z	ground_torque2_x	ground_torque2_y	ground_torque2_z	
14.66661400000000	-7.68488000000000	46.84809500000000	-13.62598100000000	0.44658000000000	0.00000000000000	0.06495700000000	-50.47942700000000	774.60689400000001	-50.36417000000000	0.21807000000000	0.00000000000000	-0.09975000000000	0.00000000000000	-12.59680500000000	0.00000000000000	0.00000000000000	-29.42721300000000	0.00000000000000	
14.66827500000000	-8.16699300000000	53.82732100000000	-14.99469900000000	0.44352600000000	0.00000000000000	0.06645500000000	-51.11122200000000	771.42280000000005	-49.93025100000000	0.21690800000000	0.00000000000000	-0.09965700000000	0.00000000000000	-13.84282500000000	0.00000000000000	0.00000000000000	-29.29063900000000	0.00000000000000	
14.66994900000000	-8.48182400000000	60.81005200000000	-16.19420800000000	0.44100400000000	0.00000000000000	0.06782000000000	-51.76269400000000	768.13918799999999	-49.47944000000000	0.21572300000000	0.00000000000000	-0.09956200000000	0.00000000000000	-14.94405200000000	0.00000000000000	0.00000000000000	-29.15344500000000	0.00000000000000	
14.67161000000000	-8.61819200000000	67.72963200000000	-17.20370000000000	0.43893300000000	0.00000000000000	0.06907000000000	-52.43318400000000	764.75400999999999	-49.01150700000000	0.21451600000000	0.00000000000000	-0.09946500000000	0.00000000000000	-15.88404900000000	0.00000000000000	0.00000000000000	-29.01554800000000	0.00000000000000	
14.67327400000000	-8.57298500000000	74.54337900000000	-18.01334600000000	0.43724700000000	0.00000000000000	0.07022100000000	-53.12191200000000	761.26512500000001	-48.52623900000000	0.21328800000000	0.00000000000000	-0.09936600000000	0.00000000000000	-16.65569800000000	0.00000000000000	0.00000000000000	-28.87685200000000	0.00000000000000	
14.67495100000000	-8.35036600000000	81.23233399999999	-18.62350300000000	0.43589200000000	0.00000000000000	0.07128500000000	-53.82798200000000	757.67030299999999	-48.02343300000000	0.21203900000000	0.00000000000000	-0.09926500000000	0.00000000000000	-17.26046100000000	0.00000000000000	0.00000000000000	-28.73724200000000	0.00000000000000	
14.67662100000000	-7.96051600000000	87.79910200000000	-19.04321700000000	0.43482500000000	0.00000000000000	0.07227400000000	-54.55037600000000	753.96723499999996	-47.50291000000000	0.21077100000000	0.00000000000000	-0.09916100000000	0.00000000000000	-17.70707800000000	0.00000000000000	0.00000000000000	-28.59658700000000	0.00000000000000	
14.67828200000000	-7.41810300000000	94.26427800000000	-19.28827400000000	0.43400900000000	0.00000000000000	0.07319500000000	-55.28795700000000	750.15353700000003	-46.96450600000000	0.20948300000000	0.00000000000000	-0.09905600000000	0.00000000000000	-18.00988000000000	0.00000000000000	0.00000000000000	-28.45474100000000	0.00000000000000	
14.67994900000000	-6.74065500000000	100.66202500000000	-19.37903700000000	0.43341200000000	0.00000000000000	0.07405700000000	-56.03946800000000	746.22676500000000	-46.40808600000000	0.20817800000000	0.00000000000000	-0.09894700000000	0.00000000000000	-18.18693800000000	0.00000000000000	0.00000000000000	-28.31154400000000	0.00000000000000	
14.68161400000000	-5.94697400000000	107.03528700000000	-19.33828400000000	0.43300800000000	0.00000000000000	0.07486500000000	-56.80353600000000	742.18442100000004	-45.83353700000000	0.20685700000000	0.00000000000000	-0.09883700000000	0.00000000000000	-18.25822400000000	0.00000000000000	0.00000000000000	-28.16681700000000	0.00000000000000	
14.68327500000000	-5.05572400000000	113.43112100000000	-19.18921600000000	0.43277600000000	0.00000000000000	0.07562500000000	-57.57867000000000	738.02396199999998	-45.24077600000000	0.20552000000000	0.00000000000000	-0.09872400000000	0.00000000000000	-18.24392000000000	0.00000000000000	0.00000000000000	-28.02037300000000	0.00000000000000	
14.68494300000000	-4.08427200000000	119.89647600000001	-18.95378200000000	0.43269600000000	0.00000000000000	0.07634100000000	-58.36326600000000	733.74281499999995	-44.62975300000000	0.20416800000000	0.00000000000000	-0.09860900000000	0.00000000000000	-18.16300100000000	0.00000000000000	0.00000000000000	-27.87200600000000	0.00000000000000	
14.68660600000000	-3.04783000000000	126.47468499999999	-18.65138500000000	0.43275200000000	0.00000000000000	0.07701800000000	-59.15560700000000	729.33838500000002	-44.00045100000000	0.20280400000000	0.00000000000000	-0.09849100000000	0.00000000000000	-18.03213500000000	0.00000000000000	0.00000000000000	-27.72150000000000	0.00000000000000	
14.68827800000000	-1.95891000000000	133.20281100000000	-18.29799800000000	0.43292800000000	0.00000000000000	0.07765800000000	-59.95387000000000	724.80807000000004	-43.35288800000000	0.20142800000000	0.00000000000000	-0.09837000000000	0.00000000000000	-17.86494600000000	0.00000000000000	0.00000000000000	-27.56862600000000	0.00000000000000	
14.68994700000000	-0.82707600000000	140.10990100000001	-17.90570500000000	0.43321400000000	0.00000000000000	0.07826500000000	-60.75612600000000	720.14927499999999	-42.68712400000000	0.20004300000000	0.00000000000000	-0.09824700000000	0.00000000000000	-17.67162600000000	0.00000000000000	0.00000000000000	-27.41314600000000	0.00000000000000	
14.69161100000000	0.34102800000000	147.21612200000001	-17.48260800000000	0.43359600000000	0.00000000000000	0.07884000000000	-61.56034800000000	715.35942499999999	-42.00325800000000	0.19864900000000	0.00000000000000	-0.09812100000000	0.00000000000000	-17.45886600000000	0.00000000000000	0.00000000000000	-27.25480800000000	0.00000000000000	
14.69327400000000	1.54145100000000	154.53266600000001	-17.03304700000000	0.43406600000000	0.00000000000000	0.07938700000000	-62.36441300000000	710.43597999999997	-41.30143100000000	0.19724900000000	0.00000000000000	-0.09799100000000	0.00000000000000	-17.23004900000000	0.00000000000000	0.00000000000000	-27.09335300000000	0.00000000000000	
14.69494900000000	2.77253000000000	162.06231700000001	-16.55806600000000	0.43461500000000	0.00000000000000	0.07990800000000	-63.16610900000000	705.37645599999996	-40.58183100000000	0.19584300000000	0.00000000000000	-0.09785900000000	0.00000000000000	-16.98565400000000	0.00000000000000	0.00000000000000	-26.92851200000000	0.00000000000000	
14.69660800000000	4.03440500000000	169.80049099999999	-16.05603300000000	0.43523500000000	0.00000000000000	0.08040300000000	-63.96313800000000	700.17843300000004	-39.84469100000000	0.19443400000000	0.00000000000000	-0.09772400000000	0.00000000000000	-16.72379900000000	0.00000000000000	0.00000000000000	-26.76000900000000	0.00000000000000	
14.69827500000000	5.32847100000000	177.73659799999999	-15.52334800000000	0.43591800000000	0.00000000000000	0.08087500000000	-64.75312800000000	694.83958399999995	-39.09029200000000	0.19302300000000	0.00000000000000	-0.09758600000000	0.00000000000000	-16.44085600000000	0.00000000000000	0.00000000000000	-26.58756000000000	0.00000000000000	
14.69994000000000	6.65684900000000	185.85556099999999	-14.95517300000000	0.43666000000000	0.00000000000000	0.08132500000000	-65.53363200000000	689.35768299999995	-38.31896500000000	0.19161300000000	0.00000000000000	-0.09744400000000	0.00000000000000	-16.13207900000000	0.00000000000000	0.00000000000000	-26.41087700000000	0.00000000000000	
14.70161100000000	8.02189400000000	194.13935200000000	-14.34611400000000	0.43745300000000	0.00000000000000	0.08175400000000	-66.30214300000000	683.73062900000002	-37.53108800000000	0.19020500000000	0.00000000000000	-0.09729900000000	0.00000000000000	-15.79221100000000	0.00000000000000	0.00000000000000	-26.22966500000000	0.00000000000000	
14.70327600000000	9.42576900000000	202.56842399999999	-13.69082600000000	0.43829200000000	0.00000000000000	0.08216300000000	-67.05609500000000	677.95646599999998	-36.72709100000000	0.18880000000000	0.00000000000000	-0.09715000000000	0.00000000000000	-15.41600200000000	0.00000000000000	0.00000000000000	-26.04362500000000	0.00000000000000	
